# xmcd
#
# Track frame offsets:
#	150
#	17663
#	35675
#	48675
#	59938
#	81751
#	94745
#	108920
#	126705
#	137713
#	163352
#	185773
#	198555
#	218193
#
# Disc length: 3144 seconds
#
# Revision: 0
# Processed by: cddbd v1.5.2PL0 Copyright (c) Steve Scherf et al.
# Submitted via: EZCDAudioConverter 1.3.4.1
#
DISCID=e00c460e
DTITLE=Michael Roe
DYEAR=2010
DGENRE=
TTITLE0=I'll Remember You, Love, In My Prayers
TTITLE1=Stranger Won't You Change Your Sinful Way
TTITLE2=Satan, Your Kingdom Must Come Down
TTITLE3=Jonah In The Wilderness
TTITLE4=You're Gonna Be Sorry
TTITLE5=Smokescreen
TTITLE6=What Holds On
TTITLE7=The Treasure In You
TTITLE8=Roesbud
TTITLE9=The Boat Ashore
TTITLE10=MT
TTITLE11=Jimmy
TTITLE12=The Lust, the Flesh, the Eyes and the Pride of Life
TTITLE13=If It Be Your Will
EXTD=
EXTT0=
EXTT1=
EXTT2=
EXTT3=
EXTT4=
EXTT5=
EXTT6=
EXTT7=
EXTT8=
EXTT9=
EXTT10=
EXTT11=
EXTT12=
EXTT13=
PLAYORDER=
